# xmcd
#
# Track frame offsets:
#        150
#        1177
#        19232
#        29562
#        44012
#        57825
#        71025
#        88465
#        102052
#        116032
#        125637
#        138872
#        153810
#
# Disc length: 2672 seconds
#
# Revision: 2
# Processed by: cddbd v1.5.1PL2 Copyright (c) Steve Scherf et al.
# Submitted via: ExactAudioCopy v0.95b3
#
DISCID=b10a6e0d
DTITLE=The Offspring - Americana
DYEAR=1900
DGENRE=
TTITLE0=Welcome
TTITLE1=Have You Ever
TTITLE2=Staring At The Sun
TTITLE3=Pretty Fly (For A White Guy)
TTITLE4=The Kids Aren't Alright
TTITLE5=Feelings
TTITLE6=She's Got Issues
TTITLE7=Walla Walla
TTITLE8=The End Of The Line
TTITLE9=No Brakes
TTITLE10=Why Don't You Get A Job?
TTITLE11=Americana
TTITLE12=Pay The Man
EXTD=
EXTT0=
EXTT1=
EXTT2=
EXTT3=
EXTT4=
EXTT5=
EXTT6=
EXTT7=
EXTT8=
EXTT9=
EXTT10=
EXTT11=
EXTT12=
PLAYORDER=
